<?xml version="1.0" encoding="utf-8"?>
<svg viewBox="0 0 500 500" width="1024" height="1024" xmlns="http://www.w3.org/2000/svg" xmlns:bx="https://boxy-svg.com">
  <defs>
    <filter id="drop-shadow-filter-1" color-interpolation-filters="sRGB" x="-500%" y="-500%" width="1000%" height="1000%" bx:preset="drop-shadow 1 0 0 5 0.5 rgba(58,58,58,1)">
      <feGaussianBlur in="SourceAlpha" stdDeviation="5"/>
      <feOffset dx="0" dy="0"/>
      <feComponentTransfer result="offsetblur">
        <feFuncA id="spread-ctrl" type="linear" slope="1"/>
      </feComponentTransfer>
      <feFlood flood-color="rgba(58,58,58,1)"/>
      <feComposite in2="offsetblur" operator="in"/>
      <feMerge>
        <feMergeNode/>
        <feMergeNode in="SourceGraphic"/>
      </feMerge>
    </filter>
  </defs>
  <rect width="500" height="500" style="fill: rgb(162, 232, 255);"/>
  <rect x="120.759" y="76.594" width="258.483" height="346.813" style="fill: rgb(58, 58, 58); filter: url(#drop-shadow-filter-1);" rx="18.596" ry="18.596"/>
  <g style="">
    <rect x="140" y="230" width="220" height="14" style="fill: rgb(255, 255, 255);" rx="7" ry="7"/>
    <rect x="140" y="256" width="220" height="14" style="fill: rgb(255, 255, 255);" rx="7" ry="7"/>
    <rect x="140" y="282" width="220" height="14" style="fill: rgb(255, 255, 255);" rx="7" ry="7"/>
    <rect x="140" y="204" width="220" height="14" style="fill: rgb(255, 255, 255);" rx="7" ry="7"/>
    <rect x="140" y="178" width="220" height="14" style="fill: rgb(255, 255, 255);" rx="7" ry="7"/>
    <rect x="140" y="152" width="220" height="14" style="fill: rgb(255, 255, 255);" rx="7" ry="7"/>
    <rect x="140" y="100" width="220" height="14" style="fill: rgb(255, 255, 255);" rx="7" ry="7"/>
    <rect x="140" y="126" width="220" height="14" style="fill: rgb(255, 255, 255);" rx="7" ry="7"/>
    <rect x="140" y="308" width="220" height="14" style="fill: rgb(255, 255, 255);" rx="7" ry="7"/>
    <rect x="140" y="334" width="220" height="14" style="fill: rgb(255, 255, 255);" rx="7" ry="7"/>
    <rect x="140" y="360" width="220" height="14" style="fill: rgb(255, 255, 255);" rx="7" ry="7"/>
    <rect x="140" y="386" width="220" height="14" style="fill: rgb(255, 255, 255);" rx="7" ry="7"/>
  </g>
</svg>
